<!--?xml version='1.0' encoding='utf-8'?-->
<!-- Generator: imaengine 6.0   -->
<svg viewBox="0,0,1080,720" xmlns:xlink="http://www.w3.org/1999/xlink" xmlns="http://www.w3.org/2000/svg" width="1080" height="720" version="1.1" class="" style="">
<defs>
<linearGradient y1="376.506" id="LinearGradient" x1="-7.09459" y2="376.506" x2="1075.92" gradientUnits="userSpaceOnUse" gradientTransform="matrix(1 0 0 1 0 0)">
<stop stop-color="#000000" offset="1"></stop>
<stop stop-color="#000000" offset="1"></stop>
</linearGradient>
</defs>
<g id="layer0">
<path d="M973.5,132.938C971.867,132.88 969.935,132.96 967.594,133.125C963.775,133.394 958.873,133.92 953.125,134.688C951.339,134.926 949.5,135.194 947.594,135.469C944.116,135.969 940.618,136.506 937.094,137.062C935.211,137.36 931.8,137.908 931.812,137.906C921.469,139.511 912.268,140.879 895.031,143.406C893.929,143.568 845.138,150.826 826.781,153.969C803.411,157.969 799.053,158.699 794.062,159.625C793.857,159.663 783.46,161.643 779.062,162.469C769.48,164.268 756.643,166.644 738.281,170C727.571,171.958 652.011,185.638 634.312,188.938C626.991,190.303 622.43,191.346 607.062,194.969C597.249,197.282 591.71,198.531 585.688,199.719C573.459,202.13 563.356,203.343 554.094,203.344C548.571,203.344 544.094,207.821 544.094,213.344C544.094,218.867 548.571,223.344 554.094,223.344C564.838,223.344 576.164,221.986 589.562,219.344C595.893,218.095 601.617,216.804 611.656,214.438C626.677,210.897 631.082,209.878 637.969,208.594C655.621,205.303 670.742,202.551 701.094,197.062C701.469,196.995 710.015,195.447 715.094,194.531C708.177,213.041 704.252,231.936 700.281,261.656C699.881,264.655 699.645,266.652 698.875,272.594C696.832,288.365 695.779,295.747 694.281,304.406C692.966,312.006 692.506,314.69 689.312,332.844C686.479,348.953 684.764,359.412 682.75,371.406C667.53,389.15 654.141,407.294 642.656,426.188C639.788,430.907 641.281,437.069 646,439.938C650.719,442.806 656.882,441.313 659.75,436.594C664.88,428.155 670.481,419.877 676.406,411.688C674.999,421.32 673.487,431.105 672.312,440.688C671.746,445.31 671.424,449.539 670.938,454.031C666.625,455.752 662.279,457.657 657.906,459.844C652.966,462.314 650.968,468.31 653.438,473.25C655.907,478.19 661.904,480.189 666.844,477.719C667.445,477.418 668.028,477.196 668.625,476.906C668.579,477.472 668.483,478.093 668.438,478.656C667.688,488.024 667.325,496.039 666.812,511.938C666.794,512.516 666.8,512.516 666.781,513.094C665.999,537.394 665.371,548.089 663.625,561.188C662.895,566.662 666.744,571.676 672.219,572.406C677.693,573.136 682.739,569.287 683.469,563.812C685.333,549.829 685.947,538.688 686.75,513.719C686.769,513.14 686.794,513.14 686.812,512.562C687.315,496.972 687.659,489.204 688.375,480.25C688.672,476.542 689.207,472.505 689.562,468.719C704.251,464.482 717.427,464.144 728.625,468.375C727.563,470.421 726.303,472.729 725.312,474.688C710.944,503.121 703.374,523.966 703.375,540.156C703.375,545.679 707.852,550.156 713.375,550.156C718.898,550.156 723.375,545.679 723.375,540.156C723.375,528.142 730.175,509.375 743.156,483.688C743.794,482.425 744.613,480.894 745.281,479.594C746.169,480.518 747.061,481.419 747.906,482.438C754.694,490.623 759.709,500.268 766.062,516.094C766.61,517.459 769.959,526.001 770.094,526.344C770.155,526.498 772.619,531.935 773.625,534.344C773.973,535.177 774.297,535.989 774.594,536.75C774.662,536.925 774.654,536.987 774.719,537.156C774.682,537.624 774.604,538.532 774.594,538.656C774.391,541.101 774.364,542.514 774.656,544.312C775.077,546.901 776.039,549.205 778.5,551.25C782.141,554.277 786.594,554.297 790.188,552.5C794.3,550.444 796.014,546.857 796.312,543.062C796.448,541.331 796.265,539.66 795.875,537.812C795.657,536.778 795.109,535.39 794.75,534.219C794.692,532.168 794.631,530.366 794.688,526.375C794.688,526.375 794.751,522.674 794.75,521.219C794.75,494.996 794.75,495.004 794.75,468.781C794.75,466.387 794.747,466.497 794.688,457.688C794.535,434.966 794.675,419.795 795.406,403.219C795.947,390.972 796.901,380.617 798.062,371.375C798.651,369.954 799.224,368.623 799.812,367.188C804.398,356.011 806.167,350.772 807.281,342.969C807.307,342.79 807.781,340.051 807.812,339.875C808.178,337.8 808.384,336.437 808.438,335.125C808.466,334.428 808.432,333.772 808.344,333.031C808.098,330.988 807.538,329.171 805.719,327.188C803.885,325.187 801.604,324.164 799.312,323.938C797.023,323.711 794.703,324.28 792.781,325.5C791.378,326.391 790.519,327.318 789.719,328.438C784.362,335.938 780.932,348.935 778.594,366.031C772.148,381.538 765.755,396.365 759.156,410.688C756.758,415.893 753.47,422.245 748.469,431.469C747.749,432.796 742.186,442.991 738.031,450.625C729.798,447.151 720.834,445.381 711.281,445.375C704.929,445.371 698.347,446.326 691.688,447.75C691.874,446.163 691.96,444.73 692.156,443.125C694.511,423.899 697.632,403.826 701.562,380.156C717.603,361.907 735.823,344.033 756.375,326.156C788.44,298.266 820.59,274.42 875.906,236.125C888.328,227.526 898.889,220.55 921.125,206.094C921.801,205.654 953.423,185.002 965.219,176.906C965.387,176.791 967.874,175.144 968.906,174.438C970.986,173.014 972.894,171.638 974.719,170.188C980.654,165.468 984.865,160.855 986.969,155.469C989.676,148.533 988.153,141.252 982.281,135.969C980.445,134.316 978.656,133.674 976.594,133.281C975.618,133.096 974.611,132.977 973.5,132.938ZM963.156,153.719C962.817,154.003 962.615,154.241 962.25,154.531C960.843,155.65 959.341,156.763 957.625,157.938C956.745,158.54 954.233,160.212 953.906,160.438C942.292,168.408 932.618,174.749 911.562,188.438C910.887,188.877 877.164,210.943 864.531,219.688C808.647,258.377 776.02,282.559 743.25,311.062C730.502,322.151 718.715,333.284 707.625,344.5C708.185,341.298 708.398,339.735 709,336.312C712.197,318.136 712.681,315.439 714,307.812C715.563,298.782 716.608,291.206 718.688,275.156C719.454,269.243 719.73,267.274 720.125,264.312C724.029,235.095 727.71,217.185 734.344,199.938C735.502,196.926 734.965,193.781 733.406,191.219C736.794,190.605 739.648,190.095 741.875,189.688C760.266,186.326 773.135,183.931 782.75,182.125C787.186,181.292 797.519,179.349 797.719,179.312C802.576,178.412 806.884,177.635 830.125,173.656C848.273,170.55 862.903,168.346 895.75,163.531C896.853,163.37 924.461,159.272 934.875,157.656C934.937,157.647 938.393,157.101 940.219,156.812C943.659,156.269 947.059,155.736 950.438,155.25C952.279,154.985 954.066,154.76 955.781,154.531C958.778,154.131 960.754,153.976 963.156,153.719ZM160.594,185.438C158.233,185.972 158.229,185.973 156.938,186.656C155.965,187.264 155.979,187.281 155.406,187.75C154.625,188.41 154.157,188.95 153.688,189.594C153.51,189.837 153.372,190.039 153.219,190.281C152.727,191.056 152.82,190.91 150.062,195.875C143.062,208.476 139.776,224.233 139.094,242.875C135.74,254.908 132.065,267.391 126.219,286.312C125.699,287.995 120.197,305.78 118.625,310.938C105.259,354.779 94.6217,388.476 84.6562,418.031C71.6979,411.325 57.8798,407.795 44.7812,408.406C21.912,409.473 3.39923,422.648 -6.34375,446.562C-6.86469,447.841 -7.11099,449.139 -7.09375,450.438C-7.04204,454.334 -4.67975,458.031 -0.84375,459.594C4.27092,461.678 10.1037,459.208 12.1875,454.094C18.9999,437.372 30.6603,429.076 45.7188,428.375C55.9475,427.898 67.3089,431.095 78.0312,437.156C69.0125,462.921 60.2844,486.111 50.5,509.594C50.0628,510.643 44.1541,526.009 42.0312,530.844C35.0953,546.639 28.3288,554.437 21.8438,554.438C16.3209,554.438 11.8438,558.915 11.8438,564.438C11.8438,569.96 16.3209,574.438 21.8438,574.438C31.5414,574.438 39.8502,569.802 46.8125,561.75C51.896,555.871 56.1722,548.376 60.3438,538.875C62.6924,533.526 68.7023,517.952 68.9688,517.312C78.1465,495.286 86.3938,473.369 94.7812,449.719C106.339,460.404 116.44,473.589 129.469,494.062C130.958,496.403 132.277,498.63 134.594,502.625C134.744,502.884 134.912,503.127 135.219,503.656C142.863,516.846 146.969,522.876 153.844,529.438C153.732,529.331 154.538,530.118 155.094,530.656C156.088,531.62 157.101,532.574 158.125,533.469C158.788,534.048 159.42,534.585 160.062,535.094C161.757,536.437 163.332,537.494 164.969,538.281C166.358,538.95 167.771,539.439 169.375,539.625C172.261,539.96 175.269,539.275 177.812,537.156C179.739,535.551 180.66,533.846 181.219,531.938C181.46,531.115 181.569,530.319 181.656,529.5C181.763,528.498 181.805,527.43 181.781,526.188C181.747,524.381 181.614,522.179 181.375,519.562C181.287,518.6 181.173,517.586 181.062,516.531C180.865,514.65 180.436,510.79 180.438,510.812C179.786,501.692 178.841,494.493 176.469,478.469C176.288,477.246 176.225,476.706 176.125,476.031C175.121,469.226 174.723,465.485 174.188,461.062C176.114,462.179 178.51,462.651 181.281,462.062C181.482,462.02 182.461,461.829 182.562,461.812C182.777,461.777 182.93,461.745 182.875,461.75C183.94,461.668 184.715,461.796 185.562,461.875C187.703,498.09 188.625,518.682 188.625,541.125C188.625,546.648 193.102,551.125 198.625,551.125C204.148,551.125 208.625,546.648 208.625,541.125C208.625,522.318 207.809,503.166 206.438,477.875C206.995,478.537 207.696,479.112 208.219,479.781C219.895,494.701 229.741,510.479 243.594,535.156C230.678,543.539 219.462,551.116 209.344,558.875C190.112,573.622 174.737,588.36 162.938,604.094C159.624,608.512 160.519,614.78 164.938,618.094C169.356,621.407 175.623,620.511 178.938,616.094C189.515,601.99 203.637,588.471 221.531,574.75C230.895,567.57 241.358,560.444 253.344,552.625C253.66,553.2 254.327,554.419 254.406,554.562C259.241,563.34 262.391,568.982 265.688,574.75C268.428,579.545 274.549,581.208 279.344,578.469C284.139,575.729 285.803,569.608 283.062,564.812C279.83,559.156 276.726,553.6 271.938,544.906C271.81,544.676 270.881,542.978 270.219,541.781C271.049,541.26 271.521,540.909 272.375,540.375C274.765,538.881 290.089,530.136 294.812,527.219C313.197,515.868 324.424,505.595 328.562,492.719C332.718,479.789 328.306,469.016 317.531,461.562C310.772,456.887 304.015,454.304 288.188,449.375C287.665,449.212 287.646,449.225 287.125,449.062C272.159,444.401 265.744,441.815 261.406,438.25C257.558,435.088 257.018,432.151 260.5,425.188C266.282,413.624 289.161,398.62 314.781,390.281C341.654,381.535 364.183,382.268 372.75,391.906C376.419,396.034 382.748,396.388 386.875,392.719C388.939,390.884 390.067,388.398 390.219,385.844C390.369,383.289 389.554,380.659 387.719,378.594C379.287,369.109 366.499,364.564 351.125,364.156C348.929,364.098 346.671,364.11 344.375,364.219C333.354,364.743 321.22,367.171 308.594,371.281C278.371,381.118 251.299,398.809 242.594,416.219C235.035,431.337 237.48,444.454 248.719,453.688C255.863,459.557 263.481,462.641 281.188,468.156C281.71,468.319 281.729,468.306 282.25,468.469C295.94,472.732 301.731,474.969 306.156,478.031C310.055,480.728 310.826,482.567 309.531,486.594C307.325,493.457 298.793,501.259 284.281,510.219C279.955,512.89 264.599,521.677 261.781,523.438C261.251,523.769 260.959,523.987 260.438,524.312C246.424,499.399 236.243,483.153 223.969,467.469C218.731,460.776 212.16,454.438 205.469,449.531C205.827,449.25 206.262,448.97 206.594,448.688C222.495,435.058 235.374,422.428 247.5,408.281C251.094,404.088 250.6,397.75 246.406,394.156C244.31,392.359 241.677,391.584 239.125,391.781C236.573,391.978 234.11,393.155 232.312,395.25C223.529,405.497 214.261,414.932 203.562,424.656C202.156,398.964 201.344,379.667 201.344,360.969C201.344,355.446 196.867,350.969 191.344,350.969C185.821,350.969 181.344,355.446 181.344,360.969C181.344,383.331 182.256,404.402 184.281,438.938C182.48,439.828 180.666,440.726 178.781,441.562C177.882,441.961 175.578,442.942 175.438,443C174.294,443.463 173.348,444.065 172.531,444.75C171.34,430.396 170.581,416.335 169.656,389.281C169.642,388.861 169.671,388.858 169.656,388.438C168.245,347.15 167.073,328.038 163.844,304.719C163.884,305.009 162.708,296.428 162.5,294.875C160.37,279.007 159.211,267.11 158.906,255.406C158.819,252.066 158.957,249.051 159.031,245.938C159.72,243.442 160.517,240.766 161.188,238.25C162.348,233.897 163.127,230.469 164.75,222.812C164.806,222.55 166.399,215.046 167.062,212.281C167.635,209.895 168.331,207.465 169.156,204.969C169.472,204.013 169.801,203.092 170.156,202.094C170.343,201.569 171.193,199.238 171.281,198.969C171.482,198.36 171.598,197.913 171.719,197.25C171.809,196.736 171.805,196.737 171.875,195.812C171.941,194.538 171.954,194.552 171.094,191.469C170.014,189.294 170.012,189.271 167.281,186.938C163.74,185.323 163.737,185.323 160.594,185.438ZM517.5,293.156C514.745,293.025 512.288,294.068 510.406,295.688C509.347,296.599 508.637,297.531 508.031,298.562C507.456,299.539 507.022,300.552 506.594,301.75C506.037,303.307 505.462,305.28 504.844,307.719C504.537,308.93 504.232,310.243 503.906,311.656C503.055,315.342 501.463,322.941 501.625,322.25C500.275,327.987 499.2,332.967 497.125,342.844C496.22,347.152 496.069,347.767 495.688,349.562C492.627,364.002 490.428,373.237 487.688,382.375C484.703,392.322 481.996,402.086 477.781,417.688C477.635,418.23 471.23,441.82 470.031,446.125C464.272,466.808 458.785,483.835 453.094,499.125C448.531,497.918 443.743,497.124 438.5,497.125C438.483,497.125 438.486,497.125 438.469,497.125C430.298,497.125 426.901,497.385 422.375,498.969C420.603,499.588 418.984,500.403 417.469,501.375C418.804,490.63 420.344,479.782 422.156,469.312C437.629,453.204 448.928,437.399 455.5,421.625C457.511,416.798 461.208,404.506 463.531,394.281C465.005,387.791 465.982,382.045 466.344,377.312C466.929,369.653 466.233,364.359 462.094,360.219C460.881,359.006 459.559,357.967 458.125,357.156C455.746,355.813 453.207,355.172 450.688,355.156C448.167,355.14 445.675,355.746 443.312,356.969C440.037,358.663 437.261,361.331 434.688,364.844C431.051,369.807 427.732,376.613 424.406,385.125C421.599,392.307 416.02,409.33 416.531,407.969C411.874,420.387 407.43,439.046 403.656,459.5C399.208,463.936 394.538,468.388 389.375,472.938C380.3,480.934 371.16,488.335 360.594,496.281C360.899,494.098 361.477,490.267 361.656,488.906C365.822,457.297 367.906,431.86 367.906,406.625C367.906,401.102 363.429,396.625 357.906,396.625C352.383,396.625 347.906,401.102 347.906,406.625C347.906,430.86 345.874,455.498 341.812,486.312C340.878,493.4 339.376,503.561 338.094,512.375C333.545,515.59 330.229,518.13 325,521.75C316.42,527.69 307.13,537.136 301.531,546.625C297.367,553.682 295.161,560.805 295.375,567.531C295.589,574.257 298.22,580.596 303.719,586.094C309.653,592.028 314.275,593.374 323.406,593.375C333.745,593.375 341.541,588.808 346.156,580.656C349.252,575.187 350.587,569.348 351.656,560.062C351.769,559.084 352.537,552.3 352.75,550.812C353.106,548.318 354.956,535.237 356.594,524C373.307,512.054 385.992,502.208 398.5,491.438C394.037,524.669 392.023,557.85 394.625,576.062C394.972,578.494 396.269,580.488 397.969,582C397.654,582.158 397.23,582.503 396.938,582.625C396.581,582.774 396.327,582.83 396.062,582.906C392.489,579.68 387.1,579.27 383.219,582.375C378.906,585.825 378.206,592.125 381.656,596.438C387.452,603.682 396.055,604.661 404.656,601.062C410.213,598.737 416.002,594.483 422.188,588.656C431.058,580.301 441.062,568.057 445.5,561.031C452.112,550.563 457.903,539.626 463.281,527.594C466.875,531.259 470.482,536.11 475.406,543.562C475.607,543.866 479.927,550.461 481.25,552.438C482.108,553.72 482.899,554.923 483.688,556.062C483.667,556.033 483.701,556.073 483.75,556.156C483.838,556.308 483.963,556.5 484.094,556.75C484.375,557.283 484.721,557.97 485.156,558.875C485.501,559.589 487.479,563.79 488.094,565.062C488.912,566.755 489.634,568.198 490.344,569.531C491.611,571.913 492.795,573.847 494,575.469C496.303,578.567 498.614,580.665 502.375,581.5C505.451,582.184 508.494,581.471 510.906,579.812C512.39,578.792 513.443,577.601 514.281,576.25C514.763,575.474 515.139,574.684 515.469,573.875C515.667,573.387 515.797,572.985 515.969,572.469C517.937,566.563 518.22,560.524 517.719,550.344C517.682,549.604 517.628,548.962 517.562,547.75C517.19,540.78 517.139,538.026 517.406,535.344C520.908,500.329 522.465,481.602 523.281,460.406C523.617,451.669 525.58,407.15 525.906,398.781C526.753,377.057 527.188,359.462 527.188,342.531C527.188,339.762 527.312,312.761 527.312,309.562C527.312,307.458 527.301,305.878 527.281,304.75C527.27,304.078 527.242,303.56 527.219,303.125C527.2,302.764 527.168,302.447 527.125,302.094C526.281,295.262 526.414,295.711 520.344,293.688C519.367,293.362 518.418,293.2 517.5,293.156ZM142.969,299.875C143.391,302.953 144.062,307.695 144.031,307.469C147.135,329.882 148.269,348.521 149.656,389.125C149.671,389.545 149.673,389.517 149.688,389.938C150.792,422.262 151.504,436.653 153.219,454.656C153.884,461.639 154.737,468.049 156.344,478.938C156.444,479.616 156.506,480.18 156.688,481.406C158.371,492.784 159.201,499.302 159.812,505.406C157.708,502.312 155.524,498.789 152.531,493.625C152.225,493.097 152.058,492.855 151.906,492.594C149.459,488.374 148.022,485.948 146.344,483.312C130.954,459.129 119.154,443.919 104.094,431.062C103.4,430.471 102.674,429.947 101.969,429.375C112.447,398.553 123.667,363.077 137.781,316.781C138.856,313.255 141.075,306.008 142.969,299.875ZM819.219,336.875C813.696,336.875 809.219,341.352 809.219,346.875C809.219,352.398 813.696,356.875 819.219,356.875C830.627,356.875 842.055,357.586 858.969,358.938C857.707,360.611 856.812,362.586 856.812,364.844C856.812,388.819 853.833,407.992 844.875,451.031C844.513,452.773 844.381,453.473 844.188,454.406C835.709,495.199 832.531,516.147 832.531,541.125C832.531,546.648 837.008,551.125 842.531,551.125C848.054,551.125 852.531,546.648 852.531,541.125C852.531,517.935 855.541,497.966 863.75,458.469C863.943,457.539 864.106,456.833 864.469,455.094C869.047,433.1 870.974,423.21 872.906,410.75C875.484,394.135 876.813,379.27 876.812,364.844C876.812,363.153 876.303,361.615 875.562,360.219C880.799,360.654 885.795,361.088 889.75,361.375C902.049,362.267 912.304,362.719 922.188,362.719C927.71,362.719 932.188,358.242 932.188,352.719C932.188,347.196 927.71,342.719 922.188,342.719C912.85,342.719 903.044,342.298 891.188,341.438C885.775,341.045 881.486,340.682 871.625,339.844C845.673,337.638 833.972,336.875 819.219,336.875ZM636.625,343.688C631.375,343.688 625.954,344.091 619.594,344.875C616.464,345.261 613.889,345.617 608.562,346.406C602.109,347.362 599.498,347.739 596.156,348.125C587.438,349.131 578.26,349.469 565.938,349.375C562.794,349.351 543.356,349.032 539.031,349.031C533.508,349.031 529.031,353.508 529.031,359.031C529.031,364.554 533.509,369.031 539.031,369.031C543.205,369.031 546.557,369.057 554.25,369.188C559.971,369.284 562.556,369.351 565.781,369.375C568.741,369.398 571.08,369.308 573.75,369.281C572.109,377.182 570.537,384.662 567.906,396.312C567.506,398.083 567.237,399.359 566.469,402.75C560.637,428.499 558.098,440.197 555.406,454.812C551.292,477.149 549.421,495.023 546.312,534.844C545.053,550.986 544.501,558.035 543.656,566.906C543.133,572.404 547.158,577.258 552.656,577.781C558.154,578.305 563.039,574.279 563.562,568.781C564.422,559.758 565.012,552.662 566.281,536.406C569.336,497.274 571.147,479.865 575.094,458.438C577.721,444.176 580.197,432.673 585.969,407.188C586.738,403.793 587.037,402.495 587.438,400.719C590.578,386.813 592.538,377.695 594.438,368.312C595.738,368.19 597.152,368.148 598.438,368C602.067,367.581 604.797,367.175 611.469,366.188C616.638,365.422 619.114,365.079 622.031,364.719C627.645,364.027 632.298,363.688 636.625,363.688C642.148,363.688 646.625,359.21 646.625,353.688C646.625,348.165 642.148,343.688 636.625,343.688ZM985.656,362.312C984.379,362.078 983.035,362.076 981.688,362.375C976.113,363.614 970.85,365.032 965.062,366.781C966.522,366.34 947.972,372.19 943.562,373.312C930.541,376.628 919.643,376.487 903.062,371.75C900.407,370.991 897.701,371.38 895.469,372.625C895.456,372.632 895.45,372.649 895.438,372.656C890.656,373.406 886.937,377.352 886.938,382.344C886.938,423.076 884.124,454.933 876.969,485.938C876.796,486.688 876.249,488.622 875.281,491.719C874.79,493.291 871.765,502.802 871.625,503.25C869.892,508.805 868.676,512.952 867.812,516.25C867.259,518.361 866.856,520.099 866.625,521.531C866.455,522.584 866.37,523.528 866.375,524.5C866.379,525.367 866.466,526.247 866.688,527.188C867.149,529.143 868.066,530.987 869.938,532.625C873.594,535.825 878.26,536.975 885.562,537.75C887.503,537.956 889.506,538.087 891.781,538.219C892.509,538.261 895.958,538.465 896,538.469C902.2,539.046 907.313,539.913 918.938,542.219C926.655,543.75 930.082,544.408 934.469,545.094C941.515,546.195 947.73,546.75 953.75,546.75C959.273,546.75 963.75,542.273 963.75,536.75C963.75,531.227 959.273,526.75 953.75,526.75C948.878,526.75 943.662,526.297 937.562,525.344C933.535,524.715 930.262,524.071 922.812,522.594C910.511,520.154 904.959,519.224 897.844,518.562C897.624,518.542 897.384,518.518 897.125,518.5C896.495,518.457 893.519,518.283 892.938,518.25C891.143,518.146 889.635,518.02 888.188,517.875C888.901,515.362 889.543,512.987 890.719,509.219C890.856,508.78 893.87,499.303 894.375,497.688C895.514,494.042 896.136,491.882 896.469,490.438C896.795,489.023 897.003,487.573 897.312,486.156C899.388,486.19 900.851,486.191 904.5,486.281C908.269,486.375 909.986,486.403 912.125,486.438C927.363,486.683 937.878,485.976 948.406,483.344C953.764,482.004 957.027,476.577 955.688,471.219C954.683,467.2 951.351,464.353 947.5,463.75C946.217,463.549 944.871,463.603 943.531,463.938C935.076,466.051 926.073,466.657 912.438,466.438C911.299,466.419 906.039,466.316 901.188,466.219C904.778,443.903 906.424,420.207 906.781,393.125C922.17,396.418 934.751,396.189 948.5,392.688C953.554,391.401 972.855,385.298 970.844,385.906C976.183,384.292 980.987,383.027 986.031,381.906C991.423,380.708 994.823,375.36 993.625,369.969C992.726,365.925 989.489,363.016 985.656,362.312ZM1021.19,365.625C1015.72,364.844 1010.66,368.657 1009.88,374.125C1009.29,378.216 1008.07,382.623 1006,388.312C1005.2,390.495 1004.57,392.16 1002.91,396.406C998.023,408.858 996.042,414.806 994.844,422.594C993.342,432.356 991.378,442.234 988.125,456.844C987.671,458.885 987.249,460.731 986.5,464.062C983.474,477.518 982.28,482.946 980.844,490.125C980.334,492.672 978.398,504.006 976.875,513.469C974.552,527.899 973.72,533.226 973.812,536.312C973.843,537.341 973.974,538.124 974.188,538.906C975.757,544.661 980.138,547.51 985.531,548.656C988.276,549.239 991.272,549.352 994.906,549.219C996.315,549.167 997.689,549.108 999.562,548.969C1002.84,548.725 1003.45,548.673 1003.75,548.688C1006.85,548.842 1008.93,549.252 1020.44,551.844C1024.21,552.693 1026.91,553.267 1029.66,553.781C1039.67,555.655 1047.52,556.148 1054.59,554.688C1064.63,552.616 1072.07,546.547 1075.41,536.531C1077.15,531.292 1074.33,525.621 1069.09,523.875C1063.85,522.129 1058.18,524.948 1056.44,530.188C1055.46,533.113 1053.9,534.405 1050.56,535.094C1046.62,535.908 1041.01,535.56 1033.34,534.125C1030.89,533.665 1028.37,533.144 1024.81,532.344C1011.6,529.367 1009.57,528.96 1004.75,528.719C1003.75,528.669 1002.71,528.698 1001.34,528.781C1000.87,528.81 998.321,528.981 998.062,529C996.643,529.105 995.687,529.176 994.719,529.219C995.212,525.79 995.817,521.646 996.625,516.625C998.108,507.414 1000.03,496.278 1000.47,494.062C1001.86,487.095 1003.01,481.764 1006,468.469C1006.75,465.123 1007.17,463.247 1007.62,461.188C1010.97,446.18 1013.04,435.924 1014.62,425.625C1015.52,419.79 1017.16,414.76 1021.5,403.688C1023.23,399.284 1023.91,397.577 1024.78,395.188C1027.29,388.309 1028.87,382.657 1029.69,376.969C1030.47,371.501 1026.65,366.406 1021.19,365.625ZM443.844,390.5C441.746,399.573 438.51,410.387 437.031,413.938C435.883,416.692 434.496,419.504 432.969,422.312C433.733,419.886 434.477,417.062 435.25,415C434.956,415.784 440.482,398.931 443.031,392.406C443.312,391.687 443.564,391.186 443.844,390.5ZM506.156,390.594C506.064,393.163 506.011,395.309 505.906,398C505.582,406.32 503.651,450.866 503.312,459.656C502.518,480.324 500.963,498.719 497.5,533.344C497.277,535.573 497.239,537.753 497.281,540.406C495.66,537.961 492.314,532.864 492.094,532.531C484.407,520.898 479.167,514.331 472.094,508.625C471.797,508.385 471.456,508.232 471.156,508C477.317,491.671 483.159,473.489 489.281,451.5C490.494,447.144 496.919,423.439 497.062,422.906C500.937,408.565 503.467,399.642 506.156,390.594ZM774.812,423.906C774.649,433.893 774.598,444.526 774.688,457.812C774.746,466.538 774.75,466.456 774.75,468.781C774.75,477.861 774.75,481.969 774.75,486.938C771.277,480.439 767.647,474.915 763.312,469.688C760.71,466.549 757.9,463.8 755,461.281C759.157,453.637 765.272,442.458 766.062,441C770.106,433.539 772.451,428.752 774.812,423.906ZM438.469,517.125C438.486,517.125 438.483,517.125 438.5,517.125C441.114,517.125 443.488,517.449 445.75,517.875C440.539,529.727 434.939,540.329 428.594,550.375C425.877,554.677 420.021,562.072 414,568.531C413.485,562.576 413.491,555.013 413.75,546.781C417.091,545.921 419.939,543.502 420.938,539.938C421.031,539.604 423.973,529.092 424.062,528.781C425.196,524.836 426.073,521.968 426.469,520.938C427.8,517.476 428.733,517.125 438.469,517.125ZM334.125,539.969C333.772,542.393 333.266,545.673 332.938,547.969C332.683,549.753 332.51,551.356 332.188,554.344C331.954,556.505 331.917,556.871 331.812,557.781C331.036,564.525 330.128,568.377 328.75,570.812C327.678,572.707 326.524,573.375 323.406,573.375C319.078,573.375 319.406,573.469 317.875,571.938C314.432,568.495 314.568,563.868 318.75,556.781C322.301,550.763 328.385,544.421 334.125,539.969Z" stroke="#ffffff" stroke-width="6.35" stroke-linecap="round" fill="url(#LinearGradient)" stroke-linejoin="round" class="suqMOMfc_0"></path>
</g>
<style data-made-with="vivus-instant">.suqMOMfc_0{stroke-dasharray:11621 11623;stroke-dashoffset:11622;animation:suqMOMfc_draw 10000ms ease-in-out 0ms forwards;}@keyframes suqMOMfc_draw{100%{stroke-dashoffset:0;}}@keyframes suqMOMfc_fade{0%{stroke-opacity:1;}94.16058394160584%{stroke-opacity:1;}100%{stroke-opacity:0;}}</style></svg>
